
<svg width="108" height="24" viewBox="0 0 108 24" fill="none" xmlns="http://www.w3.org/2000/svg">
<path d="M10.904 21.912C9.336 21.912 7.912 21.664 6.632 21.168C5.352 20.688 4.256 19.992 3.344 19.08C2.432 18.168 1.728 17.072 1.232 15.792C0.736 14.496 0.488 13.056 0.488 11.472C0.488 9.888 0.744 8.448 1.256 7.152C1.768 5.856 2.504 4.744 3.464 3.816C4.424 2.872 5.56 2.144 6.872 1.632C8.184 1.12 9.632 0.863999 11.216 0.863999C13.136 0.863999 14.808 1.232 16.232 1.968C17.672 2.704 18.792 3.744 19.592 5.088C20.392 6.416 20.792 7.976 20.792 9.768C20.792 11.144 20.592 12.344 20.192 13.368C19.792 14.392 19.24 15.184 18.536 15.744C17.832 16.304 17 16.584 16.04 16.584C15.08 16.584 14.352 16.312 13.856 15.768C13.36 15.208 13.152 14.456 13.232 13.512L13.664 13.632C13.248 14.592 12.664 15.328 11.912 15.84C11.176 16.336 10.384 16.584 9.536 16.584C8.272 16.584 7.288 16.2 6.584 15.432C5.896 14.648 5.552 13.576 5.552 12.216C5.552 11.032 5.776 9.984 6.224 9.072C6.688 8.144 7.32 7.424 8.12 6.912C8.92 6.384 9.832 6.12 10.856 6.12C11.768 6.12 12.504 6.336 13.064 6.768C13.64 7.2 14.016 7.808 14.192 8.592H13.904L14.312 6.336H15.896L14.792 12.552C14.76 12.76 14.728 12.96 14.696 13.152C14.68 13.344 14.672 13.52 14.672 13.68C14.672 14.208 14.792 14.608 15.032 14.88C15.288 15.152 15.664 15.288 16.16 15.288C16.8 15.288 17.36 15.056 17.84 14.592C18.32 14.128 18.696 13.488 18.968 12.672C19.24 11.84 19.376 10.872 19.376 9.768C19.376 8.232 19.04 6.904 18.368 5.784C17.696 4.648 16.744 3.776 15.512 3.168C14.296 2.544 12.864 2.232 11.216 2.232C9.376 2.232 7.76 2.616 6.368 3.384C4.992 4.152 3.92 5.232 3.152 6.624C2.4 8 2.024 9.616 2.024 11.472C2.024 13.36 2.384 14.984 3.104 16.344C3.824 17.704 4.848 18.744 6.176 19.464C7.52 20.2 9.096 20.568 10.904 20.568C12.232 20.568 13.44 20.36 14.528 19.944C15.616 19.544 16.512 18.968 17.216 18.216L18.008 19.392C17.224 20.208 16.208 20.832 14.96 21.264C13.728 21.696 12.376 21.912 10.904 21.912ZM9.752 15.192C10.488 15.192 11.144 14.984 11.72 14.568C12.296 14.136 12.744 13.544 13.064 12.792C13.4 12.04 13.568 11.184 13.568 10.224C13.568 9.312 13.368 8.632 12.968 8.184C12.568 7.736 11.936 7.512 11.072 7.512C10.336 7.512 9.672 7.712 9.08 8.112C8.504 8.512 8.048 9.064 7.712 9.768C7.376 10.472 7.208 11.288 7.208 12.216C7.208 13.176 7.424 13.912 7.856 14.424C8.304 14.936 8.936 15.192 9.752 15.192ZM24.146 23.184V8.736C24.146 8.288 24.122 7.832 24.074 7.368C24.042 6.888 24.002 6.416 23.954 5.952H25.826L26.09 8.808H25.802C26.058 7.864 26.578 7.12 27.362 6.576C28.146 6.016 29.082 5.736 30.17 5.736C31.258 5.736 32.194 5.984 32.978 6.48C33.778 6.976 34.402 7.688 34.85 8.616C35.298 9.544 35.522 10.664 35.522 11.976C35.522 13.272 35.298 14.384 34.85 15.312C34.418 16.24 33.802 16.96 33.002 17.472C32.202 17.968 31.258 18.216 30.17 18.216C29.098 18.216 28.17 17.944 27.386 17.4C26.602 16.856 26.082 16.112 25.826 15.168H26.09V23.184H24.146ZM29.786 16.632C30.938 16.632 31.85 16.24 32.522 15.456C33.21 14.656 33.554 13.496 33.554 11.976C33.554 10.44 33.21 9.28 32.522 8.496C31.85 7.696 30.938 7.296 29.786 7.296C28.65 7.296 27.738 7.696 27.05 8.496C26.378 9.28 26.042 10.44 26.042 11.976C26.042 13.496 26.378 14.656 27.05 15.456C27.738 16.24 28.65 16.632 29.786 16.632ZM42.5446 18.216C41.5846 18.216 40.6886 18.088 39.8566 17.832C39.0246 17.56 38.3366 17.184 37.7926 16.704L38.4646 15.336C39.0566 15.8 39.6966 16.144 40.3846 16.368C41.0886 16.592 41.8166 16.704 42.5686 16.704C43.5286 16.704 44.2486 16.536 44.7286 16.2C45.2246 15.848 45.4726 15.368 45.4726 14.76C45.4726 14.296 45.3126 13.928 44.9926 13.656C44.6886 13.368 44.1846 13.144 43.4806 12.984L41.2486 12.528C40.2246 12.304 39.4566 11.928 38.9446 11.4C38.4326 10.856 38.1766 10.168 38.1766 9.336C38.1766 8.632 38.3606 8.016 38.7286 7.488C39.0966 6.944 39.6326 6.52 40.3366 6.216C41.0406 5.896 41.8646 5.736 42.8086 5.736C43.6886 5.736 44.4966 5.872 45.2326 6.144C45.9846 6.4 46.6086 6.776 47.1046 7.272L46.4086 8.616C45.9286 8.152 45.3766 7.808 44.7526 7.584C44.1446 7.344 43.5126 7.224 42.8566 7.224C41.9126 7.224 41.2006 7.416 40.7206 7.8C40.2566 8.168 40.0246 8.656 40.0246 9.264C40.0246 9.728 40.1686 10.112 40.4566 10.416C40.7606 10.704 41.2246 10.92 41.8486 11.064L44.0806 11.52C45.1686 11.76 45.9766 12.136 46.5046 12.648C47.0486 13.144 47.3206 13.816 47.3206 14.664C47.3206 15.384 47.1206 16.016 46.7206 16.56C46.3206 17.088 45.7606 17.496 45.0406 17.784C44.3366 18.072 43.5046 18.216 42.5446 18.216ZM49.7285 23.448L49.2725 21.84C50.0245 21.664 50.6485 21.456 51.1445 21.216C51.6565 20.992 52.0805 20.688 52.4165 20.304C52.7525 19.92 53.0405 19.44 53.2805 18.864L53.9045 17.448L53.8565 18.264L48.6005 5.952H50.7125L55.0565 16.536H54.4325L58.7285 5.952H60.7685L55.2005 19.008C54.8805 19.776 54.5285 20.416 54.1445 20.928C53.7605 21.456 53.3445 21.88 52.8965 22.2C52.4645 22.536 51.9845 22.8 51.4565 22.992C50.9285 23.184 50.3525 23.336 49.7285 23.448ZM67.4414 18.216C66.2574 18.216 65.3534 17.88 64.7294 17.208C64.1054 16.52 63.7934 15.488 63.7934 14.112V7.464H61.4414V5.952H63.7934V2.664L65.7374 2.112V5.952H69.1934V7.464H65.7374V13.896C65.7374 14.856 65.8974 15.544 66.2174 15.96C66.5534 16.36 67.0494 16.56 67.7054 16.56C68.0094 16.56 68.2814 16.536 68.5214 16.488C68.7614 16.424 68.9774 16.352 69.1694 16.272V17.904C68.9454 18 68.6734 18.072 68.3534 18.12C68.0494 18.184 67.7454 18.216 67.4414 18.216ZM76.7949 18.216C74.9069 18.216 73.4189 17.672 72.3309 16.584C71.2429 15.48 70.6989 13.952 70.6989 12C70.6989 10.736 70.9389 9.64 71.4189 8.712C71.8989 7.768 72.5709 7.04 73.4349 6.528C74.2989 6 75.2909 5.736 76.4109 5.736C77.5149 5.736 78.4429 5.968 79.1949 6.432C79.9469 6.896 80.5229 7.56 80.9229 8.424C81.3229 9.272 81.5229 10.28 81.5229 11.448V12.168H72.1869V10.944H80.2509L79.8429 11.256C79.8429 9.976 79.5549 8.976 78.9789 8.256C78.4029 7.536 77.5469 7.176 76.4109 7.176C75.2109 7.176 74.2749 7.6 73.6029 8.448C72.9309 9.28 72.5949 10.408 72.5949 11.832V12.048C72.5949 13.552 72.9629 14.696 73.6989 15.48C74.4509 16.248 75.4989 16.632 76.8429 16.632C77.5629 16.632 78.2349 16.528 78.8589 16.32C79.4989 16.096 80.1069 15.736 80.6829 15.24L81.3549 16.608C80.8269 17.12 80.1549 17.52 79.3389 17.808C78.5389 18.08 77.6909 18.216 76.7949 18.216ZM83.8769 23.448L83.4209 21.84C84.1729 21.664 84.7969 21.456 85.2929 21.216C85.8049 20.992 86.2289 20.688 86.5649 20.304C86.9009 19.92 87.1889 19.44 87.4289 18.864L88.0529 17.448L88.0049 18.264L82.7489 5.952H84.8609L89.2049 16.536H88.5809L92.8769 5.952H94.9169L89.3489 19.008C89.0289 19.776 88.6769 20.416 88.2929 20.928C87.9089 21.456 87.4929 21.88 87.0449 22.2C86.6129 22.536 86.1329 22.8 85.6049 22.992C85.0769 23.184 84.5009 23.336 83.8769 23.448ZM101.457 18.216C100.385 18.216 99.4486 17.968 98.6486 17.472C97.8486 16.96 97.2246 16.24 96.7766 15.312C96.3446 14.384 96.1286 13.272 96.1286 11.976C96.1286 10.664 96.3446 9.544 96.7766 8.616C97.2246 7.688 97.8486 6.976 98.6486 6.48C99.4486 5.984 100.385 5.736 101.457 5.736C102.545 5.736 103.481 6.016 104.265 6.576C105.065 7.12 105.593 7.864 105.849 8.808H105.561L105.825 5.952H107.697C107.649 6.416 107.601 6.888 107.553 7.368C107.521 7.832 107.505 8.288 107.505 8.736V18H105.561V15.168H105.825C105.569 16.112 105.041 16.856 104.241 17.4C103.441 17.944 102.513 18.216 101.457 18.216ZM101.841 16.632C102.993 16.632 103.905 16.24 104.577 15.456C105.249 14.656 105.585 13.496 105.585 11.976C105.585 10.44 105.249 9.28 104.577 8.496C103.905 7.696 102.993 7.296 101.841 7.296C100.705 7.296 99.7926 7.696 99.1046 8.496C98.4326 9.28 98.0966 10.44 98.0966 11.976C98.0966 13.496 98.4326 14.656 99.1046 15.456C99.7926 16.24 100.705 16.632 101.841 16.632Z" fill="#BB865F"/>
</svg>
